<?xml version="1.0"?>
<svg width="140" height="120" xmlns="http://www.w3.org/2000/svg" xmlns:svg="http://www.w3.org/2000/svg">
 <!-- Created with SVG-edit - http://svg-edit.googlecode.com/ -->
 <g>
  <title>Layer 1</title>
  <rect stroke="#000000" id="svg_1" height="76" width="120.000004" y="26" x="8" stroke-width="5" fill="#ff0000"/>
  <line stroke="#000000" id="svg_3" y2="80.999999" x2="27" y1="45" x1="27" stroke-linecap="null" stroke-linejoin="null" stroke-dasharray="null" stroke-width="5" fill="none"/>
  <line id="svg_5" y2="45" x2="63" y1="45" x1="25" stroke-linecap="null" stroke-linejoin="null" stroke-dasharray="null" stroke-width="5" stroke="#000000" fill="none"/>
  <line stroke="#000000" id="svg_6" y2="79" x2="67.000002" y1="79" x1="30" stroke-linecap="null" stroke-linejoin="null" stroke-dasharray="null" stroke-width="5" fill="none"/>
  <path d="m83,44c0,1 0,1.801334 0,2.700001c0,0.899998 0,1.799999 0,2.700001c0,0.899998 0,1.799999 0,2.699997c0,0.900002 0,1.700001 0,2.600002c0,0.899998 0,1.799999 0,2.700001c0,0.899998 0,1.799999 0,2.699997c0,0.900002 0,1.657169 0,2.55267c0,0.863331 0,1.8265 0,2.747334c0,0.900002 0,1.799995 0,2.699997c0,0.900002 0,1.700005 0,2.599998c0,0.900002 0,1.800003 0,2.700005c0,0.900002 0,1.799995 0,2.699997l0,0.900002l0,0.800003l0,0.899994" id="svg_13" stroke-linecap="null" stroke-linejoin="null" stroke-dasharray="null" stroke-width="5" stroke="#000000" fill="none"/>
  <path id="svg_14" d="m118,43.649994c0,1 0,1.80133 0,2.7c0,0.9 0,1.8 0,2.7c0,0.9 0,1.8 0,2.7c0,0.9 0,1.7 0,2.6c0,0.9 0,1.8 0,2.7c0,0.9 0,1.8 0,2.7c0,0.9 0,1.65717 0,2.55267c0,0.86333 0,1.8265 0,2.74733c0,0.9 0,1.8 0,2.7c0,0.9 0,1.7 0,2.6c0,0.9 0,1.8 0,2.7c0,0.9 0,1.8 0,2.7l0,0.9l0,0.8l0,0.9" stroke-linecap="null" stroke-linejoin="null" stroke-dasharray="null" stroke-width="5" stroke="#000000" fill="none"/>
  <path d="m88,62c0.704498,-0.647335 1.599953,-0.994667 2.5,-1c0.88932,-0.005268 1.785332,0 2.699997,0c0.900002,0 1.800003,0 2.600006,0c0.899994,0 1.799995,0 2.699997,0c0.900002,0 1.800003,0 2.699997,0c0.900002,0 1.800003,0 2.600006,0c0.899994,0 1.799995,0 2.699997,0c0.900002,0 1.800003,0 2.699997,0c0.900002,0 1.800003,0 2.600006,0l0.899994,0l0.900002,0" id="svg_19" stroke-linecap="null" stroke-linejoin="null" stroke-dasharray="null" stroke-width="5" stroke="#000000" fill="none"/>
 </g>
</svg>